# xmcd
#
# Track frame offsets: 
#        150
#        18202
#        30849
#        58631
#        78776
#        95106
#        110073
#        123695
#        135182
#        148864
#        161487
#        170574
#        183619
#        194192
#        208378
#        219972
#        237149
#        250172
#        265142
#        276184
#        287294
#        300769
#
# Disc length: 4230 seconds
#
# Revision: 0
# Processed by: cddbd v1.5.2PL0 Copyright (c) Steve Scherf et al.
# Submitted via: ExactAudioCopy v0.95b4
#
DISCID=3a108416
DTITLE=Various Artist - Billboard 1967
DYEAR=2000
DGENRE=Other
TTITLE0=Procol Harum - A Whiter Shade of Pale
TTITLE1=The Beatles - Magical Mystery Tour
TTITLE2=Bob Dylan - Like a Rolling Stone
TTITLE3=The Moody Blues - Nights in White Satin
TTITLE4=The Beach Boys - Good Vibrations
TTITLE5=Jimmi Hendrix - Foxy Lady
TTITLE6=Bee Gees - To Love Somebody
TTITLE7=Emma Franklin - Piece of My Heart
TTITLE8=Frank Sinatra - The Girl from Ipanema
TTITLE9=Frankie Valli and The Four Seasons - Beggin'
TTITLE10=The Beatles - Sgt. Pepper's Lonely Hearts Club Band
TTITLE11=The Hollies - Carrie Ann
TTITLE12=Louis Armstrong - What a Wonderful World
TTITLE13=Kio Sakamoto - Sukiyaki
TTITLE14=The Searches - Sweets For My Sweet
TTITLE15=The Righteous Brothers - You've Lost That Lovin' Feelin'
TTITLE16=Diana Ross - Reflections
TTITLE17=The Rolling Stones - Ruby Tuesday
TTITLE18=Paul Anka - Crazy Love
TTITLE19=The Ventures - Land of 1000 Dances
TTITLE20=The Love Affair - Everlasting Love
TTITLE21=Sugarloaf - Green Eyed Lady
EXTD=
EXTT0=
EXTT1=
EXTT2=
EXTT3=
EXTT4=
EXTT5=
EXTT6=
EXTT7=
EXTT8=
EXTT9=
EXTT10=
EXTT11=
EXTT12=
EXTT13=
EXTT14=
EXTT15=
EXTT16=
EXTT17=
EXTT18=
EXTT19=
EXTT20=
EXTT21=
PLAYORDER=
